<svg id="audio" xmlns="http://www.w3.org/2000/svg" width="24" height="21" viewBox="0 0 24 21">
  <path id="Stroke_1814" data-name="Stroke 1814" d="M5,7H1.5A1.5,1.5,0,0,0,0,8.5v3A1.5,1.5,0,0,0,1.5,13H5l7,7V0Z" transform="translate(0.5 0.5)" fill="none" stroke="#000" stroke-linecap="round" stroke-linejoin="round" stroke-miterlimit="10" stroke-width="1"/>
  <path id="Stroke_1815" data-name="Stroke 1815" d="M0,0A10.894,10.894,0,0,1,3.5,8,10.894,10.894,0,0,1,0,16" transform="translate(20 2.5)" fill="none" stroke="#000" stroke-linecap="round" stroke-linejoin="round" stroke-miterlimit="10" stroke-width="1"/>
  <path id="Stroke_1816" data-name="Stroke 1816" d="M0,0A7.535,7.535,0,0,1,2.977,6,7.535,7.535,0,0,1,0,12" transform="translate(17.5 4.5)" fill="none" stroke="#000" stroke-linecap="round" stroke-linejoin="round" stroke-miterlimit="10" stroke-width="1"/>
  <path id="Stroke_1817" data-name="Stroke 1817" d="M0,0C2.677,1.947,2.669,5.061,0,7" transform="translate(15.5 7)" fill="none" stroke="#000" stroke-linecap="round" stroke-linejoin="round" stroke-miterlimit="10" stroke-width="1"/>
</svg>
