<svg width="492" height="492" viewBox="0 0 492 492" fill="none" xmlns="http://www.w3.org/2000/svg">
<path d="M465.064 207.564H465.092H284.436V27.248C284.436 12.408 272.42 0 257.58 0H234.464C219.628 0 207.56 12.408 207.56 27.248V207.564H26.908C12.076 207.564 0 219.564 0 234.408V257.656C0 272.488 12.072 284.436 26.908 284.436H207.564V465.404C207.564 480.236 219.628 491.996 234.468 491.996H257.584C272.424 491.996 284.44 480.232 284.44 465.404V284.436H465.064C479.904 284.436 492 272.484 492 257.656V234.408C492 219.564 479.904 207.564 465.064 207.564Z" fill="white"/>
</svg>
