<svg width="470" height="512" viewBox="0 0 470 512" fill="none" xmlns="http://www.w3.org/2000/svg">
<path d="M186.668 416C136.684 416 96 375.316 96 325.332V106.668H58.668C26.3047 106.668 0 132.969 0 165.332V453.332C0 485.695 26.3047 512 58.668 512H325.332C357.695 512 384 485.695 384 453.332V416H186.668Z" fill="white"/>
<path d="M469.332 58.668C469.332 26.2617 443.07 0 410.668 0H186.668C154.262 0 128 26.2617 128 58.668V325.332C128 357.738 154.262 384 186.668 384H410.668C443.07 384 469.332 357.738 469.332 325.332V58.668Z" fill="white"/>
</svg>
