<svg width="383" height="492" viewBox="0 0 383 492" fill="none" xmlns="http://www.w3.org/2000/svg">
<path d="M150.36 29.699H232.64V43.535H262.355V27.7621C262.359 12.4547 249.903 0 234.594 0H148.406C133.097 0 120.641 12.4547 120.641 27.7621V43.535H150.36V29.699Z" fill="white"/>
<path d="M330.979 161.197H52.0213C44.3777 161.197 38.3604 167.714 38.9764 175.33L62.298 463.521C63.5976 479.609 77.0256 492 93.158 492H289.838C305.971 492 319.399 479.609 320.698 463.517L344.02 175.33C344.64 167.714 338.622 161.197 330.979 161.197ZM119.567 461.261C119.255 461.28 118.944 461.291 118.636 461.291C110.845 461.291 104.306 455.229 103.822 447.354L89.2066 210.764C88.7033 202.578 94.9346 195.532 103.123 195.029C111.285 194.534 118.365 200.746 118.868 208.936L133.48 445.526C133.987 453.713 127.755 460.755 119.567 461.261ZM206.524 446.442C206.524 454.64 199.872 461.288 191.665 461.288C183.458 461.288 176.806 454.64 176.806 446.442V209.848C176.806 201.647 183.458 194.999 191.665 194.999C199.869 194.999 206.524 201.647 206.524 209.848V446.442ZM293.793 210.723L279.839 447.313C279.377 455.203 272.827 461.288 265.022 461.288C264.729 461.288 264.432 461.28 264.135 461.265C255.943 460.781 249.693 453.754 250.178 445.567L264.128 208.974C264.609 200.787 271.617 194.541 279.832 195.025C288.024 195.506 294.274 202.536 293.793 210.723Z" fill="white"/>
<path d="M382.362 115.373L372.604 86.139C370.031 78.4328 362.812 73.2339 354.68 73.2339H28.3167C20.1885 73.2339 12.9655 78.4328 10.3964 86.139L0.638029 115.373C-1.24377 121.011 1.2052 126.761 5.77636 129.629C7.63938 130.796 9.84421 131.498 12.2669 131.498H370.733C373.156 131.498 375.364 130.796 377.224 129.625C381.795 126.757 384.244 121.007 382.362 115.373Z" fill="white"/>
</svg>
