<svg width="214" height="512" viewBox="0 0 214 512" fill="none" xmlns="http://www.w3.org/2000/svg">
<path d="M170.629 256.052C170.629 291.392 141.982 320.039 106.642 320.039C71.3055 320.039 42.6553 291.392 42.6553 256.052C42.6553 220.716 71.3055 192.065 106.642 192.065C141.982 192.065 170.629 220.716 170.629 256.052Z" fill="white"/>
<path d="M191.96 362.698H21.3276C9.57613 362.698 0 372.274 0 384.025C0 388.056 1.06618 391.856 3.28447 395.586C3.6672 396.226 4.0929 396.847 4.56155 397.421L91.1138 505.43C95.3825 509.675 100.885 511.999 106.642 511.999C112.402 511.999 117.905 509.675 123.408 504.086L208.722 397.441C209.191 396.867 209.62 396.226 210.003 395.609C212.221 391.856 213.288 388.056 213.288 384.025C213.288 372.274 203.711 362.698 191.96 362.698Z" fill="white"/>
<path d="M21.3276 149.41H191.96C203.711 149.41 213.288 139.834 213.288 128.079C213.288 124.048 212.221 120.252 210.003 116.519C209.62 115.878 209.191 115.261 208.722 114.687L122.17 6.67439C113.64 -1.76916 100.885 -3.13607 89.8797 8.04129L4.56155 114.687C4.0929 115.261 3.6672 115.902 3.28447 116.519C1.06618 120.252 0 124.048 0 128.079C0 139.834 9.57613 149.41 21.3276 149.41Z" fill="white"/>
</svg>
